<svg width="211" height="24" viewBox="0 0 211 24" fill="none" xmlns="http://www.w3.org/2000/svg">
<path d="M23.615 11.5954C25.374 11.9513 26.703 12.569 27.604 13.4484C28.504 14.3068 28.954 15.5422 28.954 17.1544V17.28C28.954 18.9969 28.493 20.3265 27.572 21.2687C26.651 22.2109 25.374 22.8704 23.741 23.2473C22.1074 23.6033 20.0555 23.7917 17.5848 23.8127H17.522H16.2657L0.0911026 23.7812V0.540098H19.0295C21.4583 0.560998 23.395 1.0636 24.84 2.0476C26.285 3.0317 27.007 4.4241 27.007 6.2248V6.3504C27.007 7.7114 26.724 8.8211 26.159 9.6795C25.594 10.538 24.746 11.1766 23.615 11.5954ZM20.6313 7.2612C20.6313 6.4865 20.4533 5.9316 20.0974 5.5966C19.7414 5.2407 19.2703 5.0208 18.684 4.9371C18.1187 4.8533 17.3021 4.8115 16.2343 4.8115H16.2029H6.2783V9.7109L13.816 9.7737H16.2343C17.365 9.7737 18.192 9.7423 18.7155 9.6795C19.2389 9.6167 19.6891 9.4073 20.066 9.0514C20.4428 8.6954 20.6313 8.0987 20.6313 7.2612ZM17.2707 19.1644C18.5479 19.1644 19.5006 19.1226 20.1288 19.0388C20.7569 18.9341 21.2594 18.6829 21.6363 18.285C22.0132 17.8872 22.2016 17.2486 22.2016 16.3692C22.2016 15.5108 22.0132 14.8931 21.6363 14.5162C21.2594 14.1184 20.7569 13.8776 20.1288 13.7938C19.5006 13.7101 18.5479 13.6682 17.2707 13.6682H17.2393H6.2783V19.1016C10.8218 19.1016 14.0568 19.1226 15.983 19.1644H17.2707ZM49.97 23.7498L43.531 16.2436H36.967V23.7498H30.686V0.508698H47.677C49.624 0.508698 51.341 0.833198 52.828 1.4823C54.335 2.1314 55.497 3.0422 56.314 4.2147C57.152 5.3663 57.57 6.7063 57.57 8.2348V8.3604C57.57 10.3495 56.984 11.9932 55.811 13.2913C54.66 14.5895 53.058 15.4584 51.006 15.8981L57.759 23.7498H49.97ZM51.257 8.4232C51.257 7.4182 51.059 6.6854 50.661 6.2248C50.263 5.7641 49.75 5.4815 49.122 5.3768C48.494 5.2721 47.604 5.2197 46.452 5.2197C45.95 5.2197 45.52 5.2302 45.165 5.2511C43.448 5.293 40.715 5.314 36.967 5.314V11.4383H46.421H46.452C47.604 11.4383 48.494 11.3964 49.122 11.3127C49.75 11.208 50.263 10.9358 50.661 10.4961C51.059 10.0564 51.257 9.3655 51.257 8.4232ZM89.01 23.7812H82.32L79.902 19.3215H65.989L63.57 23.7812H56.881L69.506 0.540098H76.416L89.01 23.7812ZM72.961 6.476L68.564 14.5476H77.326L72.961 6.476ZM95.984 23.7812H89.483V0.540098L95.984 23.7812ZM111.531 15.8981V0.540098H118.063V23.7812H111.531L95.984 8.3918V23.7812H89.483V0.540098H95.984L111.531 15.8981ZM119.944 5.9107V0.540098H146.829L119.944 5.9107ZM146.829 0.540098V5.9421H136.716V23.7812H130.183V5.9421H119.944V0.540098H146.829ZM155.211 23.7812H148.71V0.540098H155.211V23.7812ZM187.803 23.7812H181.113L178.695 19.3215H164.782L162.363 23.7812H155.674L168.299 0.540098H175.209L187.803 23.7812ZM171.754 6.476L167.357 14.5476H176.12L171.754 6.476ZM194.778 0.540098V18.6305H210.104V23.7812H188.276V0.540098H194.778Z" fill="black"/>
</svg>
