<svg width="56" height="76" viewBox="0 0 56 76" fill="none" xmlns="http://www.w3.org/2000/svg">
<path d="M55.4179 51.6073V45.4354C55.4179 44.8062 55.0798 44.2231 54.5358 43.9135L48.1511 40.2787L44.5507 38.2281C43.3746 37.5587 43.3746 35.8539 44.5507 35.1844L48.1491 33.1358L54.5338 29.501C55.0798 29.1914 55.4159 28.6084 55.4159 27.9791V16.5038C55.4159 15.8745 55.0778 15.2915 54.5338 14.9819L48.1491 11.3471L35.1357 3.93686L28.621 0.227677C28.089 -0.0758925 27.4369 -0.0758925 26.9048 0.227677L20.3902 3.93686L7.26677 11.4095L0.882094 15.0443C0.336036 15.3539 0 15.9369 0 16.5661V59.4338C0 60.063 0.338037 60.6461 0.882094 60.9557L7.26677 64.5905L20.1541 71.9284L26.6688 75.6356C27.2009 75.9391 27.8529 75.9391 28.385 75.6356L34.8977 71.9284L48.1491 64.3834L54.5338 60.7486C55.0798 60.439 55.4159 59.856 55.4159 59.2267V51.6073H55.4179ZM34.5057 32.5086L29.8072 35.1844C28.631 35.8539 28.631 37.5587 29.8072 38.2281L34.5057 40.904L47.269 48.1716C47.8151 48.4812 48.1511 49.0642 48.1511 49.6934V54.9687C48.1511 55.598 47.8131 56.181 47.269 56.4906L28.385 67.2422C27.8529 67.5457 27.2009 67.5457 26.6688 67.2422L8.15086 56.6976C7.60481 56.388 7.26877 55.805 7.26877 55.1758V20.8221C7.26877 20.1929 7.60681 19.6099 8.15086 19.3003L26.9069 8.62309C27.4389 8.31952 28.091 8.31952 28.623 8.62309L47.269 19.2399C47.8151 19.5496 48.1511 20.1326 48.1511 20.7618V23.7211C48.1511 24.3504 47.8131 24.9334 47.269 25.243L34.5057 32.5086Z" fill="black"/>
</svg>
